<svg width="290" height="81" viewBox="0 0 290 81" fill="none" xmlns="http://www.w3.org/2000/svg">
<path d="M139.297 3.49512H117.996V13.3152H139.297V16.5951H121.28V26.4113H142.577V3.51065H139.301L139.297 3.49512ZM139.297 21.4974V23.1315H124.552V19.8594H139.297V21.4974ZM139.297 8.40518V10.0432H121.28V6.7672H139.301L139.297 8.40518Z" fill="#070707"/>
<path d="M160.594 26.4036H167.139V16.5951H149.126V13.3231H170.427V3.50293H145.85V26.4036H160.594ZM149.126 8.40523V6.76725H167.139V10.0432H149.126V8.40523ZM155.682 23.1315H149.126V19.8595H163.894V23.1315H155.682Z" fill="#070707"/>
<path d="M145.848 0.2229H142.572V1.86088V3.49498H144.212H145.848V1.86088V0.2229Z" fill="#070707"/>
<path d="M180.162 52.7118V54.342V55.9683V57.5947V59.2249V60.8551V62.4815V64.1117V65.738V67.3682V68.9946V70.6248V72.2511L178.53 70.6248L176.902 68.9946L175.269 67.3682L173.641 65.738L172.009 64.1117L170.377 62.4815L168.748 60.8551L167.116 59.2249L165.488 57.5947L163.855 55.9683L162.227 54.342L160.595 52.7118H158.966H157.334V54.342V55.9683V57.5947V59.2249V60.8551V62.4815V64.1117V65.738V67.3682V68.9946V70.6248V72.2511V73.8813V75.5116V77.1379V78.7642H158.966H160.595V77.1379V75.5116V73.8813V72.2511V70.6248V68.9946V67.3682V65.738V64.1117V62.4815V60.8551V59.2249V57.5947L162.227 59.2249L163.855 60.8551L165.488 62.4815L167.116 64.1117L168.748 65.738L170.377 67.3682L172.009 68.9946L173.641 70.6248L175.269 72.2511L176.902 73.8813L178.53 75.5116L180.162 77.1379L181.791 78.7642H183.423V77.1379V75.5116V73.8813V72.2511V70.6248V68.9946V67.3682V65.738V64.1117V62.4815V60.8551V59.2249V57.5947V55.9683V54.342V52.7118H181.791H180.162Z" fill="#070707"/>
<path d="M232.658 62.4814H229.398V52.7118H209.834V78.7681H235.927V62.4659H232.666L232.658 62.4814ZM213.095 60.8435V55.9684H226.137V62.4814H213.095V60.8435ZM232.658 67.3566V75.5077H213.095V65.7419H232.658V67.3566Z" fill="#070707"/>
<path d="M286.763 62.4814H281.874V52.7118H262.307V78.7681H288.392V62.4659L286.763 62.4814ZM265.567 60.8435V55.9684H278.614V62.4814H265.567V60.8435ZM285.135 67.3566V75.5077H265.567V65.7419H285.135V67.3566Z" fill="#070707"/>
<path d="M127.883 52.7118H127.875H126.251H124.622H122.99H121.362H119.73H118.101H116.469H114.841H113.208H111.58H109.948H108.319H106.687H105.055V54.342V55.9683V57.5947V59.2249V60.8551V62.4815V64.1117V65.738V67.3682V68.9946V70.6248V72.2511V73.8813V75.5116V77.1379V78.7642H106.687H108.319H109.948H111.58H113.208H114.841H116.469H118.101H119.73H121.362H122.99H124.622H126.251H127.875H127.883H129.508H131.136V77.1379V75.5116H129.508H127.883H127.875H126.251H124.622H122.99H121.362H119.73H118.101H116.469H114.841H113.208H111.58H109.948H108.319V73.8813V72.2511V70.6248V68.9946H109.948H111.58H113.208H114.841H116.469H118.101H119.73H121.362H122.982H122.99H124.615H126.243H127.875V67.3682V65.738H126.243H124.615H122.99H122.982H121.362H119.73H118.101H116.469H114.841H113.208H111.58H109.948H108.319V64.1117V62.4815V60.8551V59.2249V57.5947V55.9683H109.948H111.58H113.208H114.841H116.469H118.101H119.73H121.362H122.99H124.622H126.251H127.875H127.883H129.508H131.136V54.342V52.7118H129.508H127.883Z" fill="#070707"/>
<path d="M22.8499 52.7118H0.0253906V78.7681H26.1144V52.7118H22.8538H22.8499ZM22.8499 57.5986V75.5116H3.28215V55.9684H22.8499V57.5986Z" fill="#070707"/>
<path d="M75.3968 52.7122H52.5723V78.7685H55.8329V68.9949H78.6574V52.6927H75.3968V52.7122ZM75.3968 57.5989V65.75H55.8329V55.9687H75.3968V57.5989Z" fill="#070707"/>
</svg>
