<svg width="170" height="30" viewBox="0 0 170 30" fill="none" xmlns="http://www.w3.org/2000/svg">
<path d="M49.855 23.184C53.972 23.184 56.939 20.861 57.238 17.411H53.788C53.512 19.067 51.925 20.194 49.855 20.194C47.256 20.194 45.255 18.4 45.255 14.95C45.255 11.5 47.256 9.683 49.855 9.683C51.879 9.683 53.466 10.81 53.696 12.489H57.307C56.87 9.016 53.903 6.716 49.855 6.716C45.554 6.716 41.782 9.522 41.782 14.95C41.782 20.378 45.485 23.184 49.855 23.184Z" fill="white"/>
<path d="M66.4926 11.408H65.1816C63.7786 11.408 62.9046 11.891 62.2836 13.34V11.408H59.0636V23H62.2836V17.365C62.2836 15.387 62.9966 14.076 64.5836 14.076H66.4926V11.408Z" fill="white"/>
<path d="M75.0646 11.408L72.6496 18.883L70.2116 11.408H66.9456L71.1546 22.908L69.4526 27.692H72.5116L74.1446 22.954L78.3536 11.408H75.0646Z" fill="white"/>
<path d="M83.0413 27.692V21.965C83.6623 22.747 84.7893 23.184 86.1003 23.184C89.4353 23.184 91.6893 20.815 91.6893 17.204C91.6893 13.593 89.6193 11.224 86.3763 11.224C84.8813 11.224 83.7313 11.776 83.0413 12.673V11.408H79.8443V27.692H83.0413ZM85.7093 20.424C83.9843 20.424 82.8573 19.136 82.8573 17.204C82.8573 15.249 83.9843 13.961 85.7093 13.961C87.3883 13.961 88.5383 15.249 88.5383 17.204C88.5383 19.136 87.3883 20.424 85.7093 20.424Z" fill="white"/>
<path d="M94.6992 11.408H92.4682V14.076H94.6992V18.791C94.6992 21.482 96.4242 23 99.0922 23H101.001V20.102H99.5292C98.4942 20.102 97.8962 19.573 97.8962 18.446V14.076H101.001V11.408H97.8962V7.981H94.6992V11.408Z" fill="white"/>
<path d="M108.046 23.184C111.611 23.184 114.164 20.654 114.164 17.204C114.164 13.754 111.611 11.224 108.046 11.224C104.481 11.224 101.928 13.754 101.928 17.204C101.928 20.654 104.481 23.184 108.046 23.184ZM108.046 20.424C106.321 20.424 105.148 19.113 105.148 17.204C105.148 15.272 106.321 13.961 108.046 13.961C109.771 13.961 110.944 15.272 110.944 17.204C110.944 19.113 109.771 20.424 108.046 20.424Z" fill="white"/>
<path d="M121.524 23.184C125.135 23.184 127.573 21.298 127.573 18.285C127.573 11.914 119.109 14.628 119.109 11.27C119.109 10.327 119.96 9.683 121.317 9.683C122.858 9.683 123.824 10.511 123.939 11.776H127.228C127.136 8.717 124.79 6.716 121.317 6.716C118.051 6.716 115.751 8.602 115.751 11.27C115.751 17.595 124.1 15.18 124.1 18.331C124.1 19.55 123.065 20.194 121.524 20.194C119.822 20.194 118.741 19.159 118.603 17.526H115.291C115.429 20.953 117.867 23.184 121.524 23.184Z" fill="white"/>
<path d="M130.727 11.408H128.496V14.076H130.727V18.791C130.727 21.482 132.452 23 135.12 23H137.029V20.102H135.557C134.522 20.102 133.924 19.573 133.924 18.446V14.076H137.029V11.408H133.924V7.981H130.727V11.408Z" fill="white"/>
<path d="M143.36 11.224C140.186 11.224 138.3 13.087 138.162 15.41H141.014C141.06 14.444 141.773 13.57 143.176 13.57C144.487 13.57 145.246 14.237 145.246 15.203C145.246 15.686 144.947 16.054 144.372 16.054H142.417C139.887 16.054 138.185 17.434 138.185 19.711C138.185 21.689 139.726 23.184 141.98 23.184C143.567 23.184 144.855 22.471 145.246 21.39V23H148.42V15.548C148.42 12.926 146.281 11.224 143.36 11.224ZM142.785 20.861C141.888 20.861 141.244 20.332 141.244 19.573C141.244 18.676 141.934 18.078 142.9 18.078H145.246V18.239C145.246 19.711 144.349 20.861 142.785 20.861Z" fill="white"/>
<path d="M151.862 11.408H149.631V14.076H151.862V18.791C151.862 21.482 153.587 23 156.255 23H158.164V20.102H156.692C155.657 20.102 155.059 19.573 155.059 18.446V14.076H158.164V11.408H155.059V7.981H151.862V11.408Z" fill="white"/>
<path d="M164.662 23.184C167.376 23.184 169.17 21.735 169.17 19.527C169.17 14.283 162.822 16.974 162.822 14.605C162.822 13.869 163.443 13.478 164.34 13.478C165.214 13.478 166.111 14.007 166.249 14.996H169.032C168.917 12.719 167.031 11.224 164.248 11.224C161.879 11.224 160.108 12.673 160.108 14.72C160.108 19.596 166.341 17.273 166.341 19.642C166.341 20.286 165.651 20.769 164.662 20.769C163.466 20.769 162.661 20.125 162.546 19.09H159.786C159.901 21.597 161.833 23.184 164.662 23.184Z" fill="white"/>
<path fill-rule="evenodd" clip-rule="evenodd" d="M0 0H29.6985V29.6985H0V0ZM22.4853 7.07107C26.781 11.3668 26.781 18.3316 22.4853 22.6274C18.1895 26.9232 11.2247 26.9232 6.92893 22.6274C2.63317 18.3316 2.63317 11.3668 6.92893 7.07107C11.2247 2.7753 18.1895 2.7753 22.4853 7.07107ZM21.8787 14.9203L14.8076 7.84924L7.73655 14.9203L14.8076 21.9914L21.8787 14.9203Z" fill="#0477F4"/>
</svg>
