<?xml version="1.0" encoding="UTF-8"?>
<svg width="36px" height="42px" viewBox="0 0 36 42" version="1.1" xmlns="http://www.w3.org/2000/svg" xmlns:xlink="http://www.w3.org/1999/xlink">
    <title>ico-uni</title>
    <g id="Homepage" stroke="none" stroke-width="1" fill="none" fill-rule="evenodd">
        <g transform="translate(-1088.000000, -894.000000)" fill="#FF007A" id="how-it-works">
            <g transform="translate(202.000000, 780.000000)">
                <g id="UI/elements/illustrations/funnel" transform="translate(534.000000, 0.000000)">
                    <g id="Group-18" transform="translate(32.000000, 114.000000)">
                        <g id="ico-uni" transform="translate(320.000000, 0.000000)">
                            <path d="M14.3876948,9.13425005 C13.9390473,9.06721191 13.9176831,9.04486587 14.1313248,9.02251982 C14.5372439,8.95548169 15.4772673,9.04486587 16.1395565,9.20128818 C17.6777765,9.58117095 19.0664473,10.5643969 20.5405748,12.2850424 L20.9251298,12.7543094 L21.4805982,12.6649252 C23.8520207,12.2626964 26.2875357,12.575541 28.3171316,13.558767 C28.8725999,13.8269195 29.7485308,14.3632246 29.8553516,14.4973009 C29.89808,14.541993 29.9621725,14.8324916 30.0049008,15.1229901 C30.15445,16.1732543 30.0903575,16.9553658 29.7698949,17.5587091 C29.5989816,17.8938997 29.5989816,17.9832839 29.7058024,18.2737825 C29.7912591,18.4972429 30.0476291,18.6536653 30.282635,18.6536653 C30.795375,18.6536653 31.3294791,17.8045155 31.5858491,16.6201752 L31.69267,16.1509082 L31.8849475,16.3743687 C32.97452,17.6480932 33.8290867,19.4134308 33.9572717,20.6648093 L34,21 L33.8077225,20.7095014 C33.48726,20.1955424 33.1881617,19.8603517 32.7822425,19.5698531 C32.0558608,19.0558941 31.2867508,18.8994718 29.2571549,18.7877415 C27.4198366,18.6760113 26.3729924,18.519589 25.3475124,18.1620523 C23.5956507,17.5587091 22.6983557,16.7765975 20.6260315,13.8939577 C19.7073723,12.6202331 19.1305398,11.9275057 18.5537073,11.3465085 C17.2932215,10.0727839 16.0327356,9.40240259 14.3876948,9.13425005 Z" id="Path" fill-rule="nonzero"></path>
                            <path d="M29.8229441,13.2782159 C29.8647475,12.437709 29.9692559,11.884744 30.1991744,11.3760162 C30.2827811,11.1769488 30.3663879,11 30.3872895,11 C30.4081912,11 30.3663879,11.1548302 30.3036828,11.331779 C30.1364693,11.8183882 30.1155677,12.5040648 30.2200761,13.2782159 C30.3663879,14.2735529 30.4290929,14.4062645 31.4323737,15.4900759 C31.8922108,15.9988037 32.4356545,16.6402432 32.6446714,16.9056664 L33,17.3922756 L32.6446714,17.038378 C32.205736,16.5960059 31.2024552,15.7554991 30.9725367,15.6449061 C30.8262249,15.5564317 30.8053232,15.5564317 30.7008148,15.6670247 C30.6172081,15.7554991 30.5963064,15.8882107 30.5963064,16.5296501 C30.5754047,17.5249872 30.4499946,18.144308 30.1364693,18.7857474 C29.9692559,19.1175264 29.9483542,19.0511706 30.094666,18.6751544 C30.1991744,18.3876126 30.2200761,18.254901 30.2200761,17.3038012 C30.2200761,15.3794829 30.0110592,14.9149923 28.7360565,14.1408413 C28.4225313,13.9417739 27.8790875,13.6542321 27.5655622,13.4994019 C27.2311353,13.3445717 26.9803151,13.2118601 27.0012168,13.2118601 C27.0430202,13.1676229 28.2762195,13.5436391 28.7569582,13.7648251 C29.4885171,14.0744855 29.6139272,14.0966041 29.697534,14.0744855 C29.760239,14.0081297 29.8020424,13.8311809 29.8229441,13.2782159 Z" id="Path" fill-rule="nonzero"></path>
                            <path d="M15.5063732,16.157632 C14.5152177,14.8900784 13.8780462,12.9231848 14.0196399,11.4589418 L14.0668377,11 L14.3028272,11.0437087 C14.7276081,11.1092719 15.4591754,11.3715243 15.8131595,11.5682137 C16.7571172,12.0927186 17.1818981,12.8139129 17.5830802,14.6059715 C17.7010749,15.1304765 17.8662675,15.7423989 17.9370643,15.9390883 C18.055059,16.2669039 18.5034389,17.0318069 18.881022,17.5126031 C19.1406104,17.8622731 18.9754178,18.0371081 18.3854442,17.9933993 C17.4886844,17.9059818 16.2851383,17.1410788 15.5063732,16.157632 Z" id="Path" fill-rule="nonzero"></path>
                            <path d="M28.8315046,25.6122449 C24.5231542,23.8311688 23,22.2949907 23,19.690167 C23,19.3116883 23.0217593,19 23.0217593,19 C23.0435187,19 23.1958341,19.1335807 23.3916682,19.2894249 C24.262042,20.0018553 25.2412126,20.3135436 27.9611307,20.7142857 C29.549563,20.9591837 30.4634555,21.1372913 31.2903106,21.4267161 C33.9231914,22.3172542 35.5551423,24.1428571 35.9468105,26.6141002 C36.0556072,27.3265306 35.9903292,28.6846011 35.8162544,29.3970315 C35.663939,29.9536178 35.2287521,30.9777365 35.1199554,31 C35.098196,31 35.0546773,30.8886827 35.0546773,30.7105751 C35.0111586,29.7755102 34.5542124,28.8849722 33.7926353,28.1948052 C32.8787428,27.393321 31.7037381,26.7922078 28.8315046,25.6122449 Z" id="Path" fill-rule="nonzero"></path>
                            <path d="M25.3516587,26.1423958 C25.3123652,25.8417653 25.2141317,25.4609667 25.1551916,25.3006305 L25.056958,25 L25.2337784,25.2204623 C25.4891856,25.5210928 25.6856527,25.8818494 25.862473,26.3829002 C26,26.7636988 26,26.883951 26,27.505254 C26,28.1065149 25.9803533,28.2468091 25.862473,28.5875237 C25.666006,29.1286585 25.4302455,29.5094572 25.0373113,29.9303398 C24.3300299,30.671895 23.4066346,31.0727356 22.0903052,31.2531139 C21.8545447,31.2731559 21.1865567,31.333282 20.5971554,31.3733661 C19.1236524,31.4535342 18.141317,31.6138705 17.2572152,31.934543 C17.1393349,31.9746271 17.0214547,32.0147111 17.001808,31.9946691 C16.9625146,31.954585 17.5715625,31.5938285 18.0627302,31.3533241 C18.7503649,31.0126095 19.4576464,30.8322313 21.0097363,30.5516428 C21.7759579,30.4313906 22.5618262,30.2710544 22.7582933,30.1908862 C24.7033173,29.5695832 25.666006,28.0263468 25.3516587,26.1423958 Z" id="Path" fill-rule="nonzero"></path>
                            <path d="M28.5175991,29.8651685 C27.9867282,28.5842697 27.8642196,27.3707865 28.1500731,26.2247191 C28.1909093,26.1123596 28.2317456,26 28.2725818,26 C28.313418,26 28.4359267,26.0674157 28.5584354,26.1573034 C28.8034527,26.3370787 29.3139055,26.6516854 30.6206647,27.4382022 C32.2745318,28.4269663 33.2137649,29.1910112 33.8671445,30.0674157 C34.4388516,30.8314607 34.7859595,31.7078652 34.9493044,32.7865169 C35.051395,33.3932584 34.9901407,34.8539326 34.8472139,35.4606742 C34.3980154,37.3707865 33.3771098,38.8988764 31.8865876,39.7752809 C31.6619884,39.9101124 31.4782254,40 31.4578073,40 C31.4373892,40 31.5190616,39.7752809 31.6415703,39.505618 C32.131605,38.3595506 32.1928593,37.258427 31.8253333,36.0224719 C31.6007341,35.258427 31.1311175,34.3370787 30.1918843,32.7865169 C29.0688882,30.988764 28.8034527,30.5168539 28.5175991,29.8651685 Z" id="Path" fill-rule="nonzero"></path>
                            <path d="M11.4576307,35.7065955 C13.070234,34.3470447 15.0533002,33.3822022 16.8838229,33.0752068 C17.6683326,32.9436374 18.9758488,32.9874939 19.6949827,33.184848 C20.8499553,33.4918434 21.8959683,34.1496905 22.4407667,34.9610354 C22.9637732,35.750452 23.2034845,36.4302274 23.4431958,37.9432758 C23.5303635,38.5353383 23.6393232,39.149329 23.6611151,39.2808984 C23.8354506,40.070315 24.1841216,40.6843057 24.6199603,41.0132293 C25.2955104,41.5175787 26.4722749,41.539507 27.6272476,41.1009422 C27.823375,41.0351575 27.9977105,40.9693728 27.9977105,40.991301 C28.0412944,41.0351575 27.4529121,41.4298658 27.0606572,41.6272199 C26.5158588,41.912287 26.0800201,42 25.4916378,42 C24.4456248,42 23.5521554,41.451794 22.8330215,40.3553821 C22.680478,40.1360997 22.3753909,39.5001808 22.1138876,38.9081183 C21.3511699,37.131931 20.958915,36.6056533 20.0654456,36.0135908 C19.2809359,35.5092413 18.2785068,35.3996002 17.515789,35.7723802 C16.5133599,36.2548015 16.2518567,37.5485675 16.9491987,38.3379841 C17.2324939,38.6669077 17.7555003,38.9300466 18.1913391,38.9958313 C18.9976407,39.1054725 19.6949827,38.4695536 19.6949827,37.6582087 C19.6949827,37.131931 19.4988553,36.8249357 18.9758488,36.583725 C18.2785068,36.2767297 17.515789,36.6275815 17.537581,37.3073569 C17.537581,37.592424 17.6683326,37.7678499 17.9516278,37.8994194 C18.1259632,37.9871323 18.1259632,37.9871323 17.9952116,37.9652041 C17.3632455,37.8336346 17.2107019,37.0442181 17.7119165,36.5398686 C18.3220907,35.9258779 19.6078149,36.1890167 20.0436537,37.0442181 C20.2179892,37.3950699 20.2397811,38.0967735 20.0872375,38.5353383 C19.7167746,39.5001808 18.6707617,40.0045303 17.6029568,39.7194632 C16.8838229,39.522109 16.5787358,39.3247549 15.7070583,38.4256971 C14.1816227,36.8468639 13.5932404,36.5398686 11.4140468,36.210945 L11,36.1451603 L11.4576307,35.7065955 Z" id="Path" fill-rule="nonzero"></path>
                            <path d="M0.715175624,0.914353219 C5.60982868,6.93207324 13.1513757,16.2882457 13.5295034,16.7985824 C13.8446098,17.223863 13.7185672,17.6278795 13.1933899,17.9255759 C12.8992905,18.0956881 12.2900848,18.2658004 11.9959855,18.2658004 C11.6598719,18.2658004 11.2607371,18.0956881 10.9876449,17.8192558 C10.7985811,17.6278795 9.97930437,16.4158299 8.13068004,13.502658 C6.7232047,11.269935 5.5258003,9.41996456 5.50479321,9.39870053 C5.42076483,9.35617247 5.42076483,9.35617247 7.98363038,13.9917307 C9.60117667,16.9049025 10.126354,17.9468399 10.126354,18.0744241 C10.126354,18.3508565 10.0423257,18.4997047 9.70621214,18.8824572 C9.13902059,19.520378 8.88693545,20.243355 8.6978716,21.753101 C8.48780065,23.4329592 7.9206091,24.6237448 6.30306281,26.6438275 C5.35774355,27.8346131 5.21069388,28.0472534 4.97961584,28.536326 C4.68551652,29.1317188 4.60148814,29.4719433 4.55947395,30.2374483 C4.51745976,31.0454814 4.60148814,31.5558181 4.83256618,32.3213231 C5.04263713,33.001772 5.27371517,33.4483166 5.84090672,34.3201418 C6.3240699,35.0856468 6.61816923,35.6597755 6.61816923,35.8724158 C6.61816923,36.0425281 6.66018342,36.0425281 7.41643882,35.8724158 C9.22304897,35.4471353 10.7145527,34.7241583 11.5338294,33.8310691 C12.0379997,33.2782044 12.1640422,32.980508 12.1640422,32.215003 C12.1640422,31.7259303 12.1430351,31.6196102 12.0169926,31.3219138 C11.8069216,30.8541051 11.4077868,30.4713526 10.5464959,29.8759598 C9.41211282,29.0891908 8.92894964,28.4512699 8.80290707,27.6007088 C8.6978716,26.8777318 8.82391417,26.3886592 9.45412701,25.0490254 C10.1053469,23.6668636 10.2734037,23.0927348 10.3784392,21.6893089 C10.4414605,20.7962197 10.5464959,20.4347312 10.7985811,20.1582989 C11.0716733,19.8606025 11.3027513,19.7542823 11.9539713,19.6692262 C13.0253331,19.520378 13.7185672,19.2439457 14.2647517,18.7123449 C14.7479149,18.2658004 14.9579858,17.8192558 14.9789929,17.1600709 L15,16.6709982 L14.7269078,16.3733018 C13.7395743,15.2250443 0.0639556896,0 0.000934405588,0 C-0.0200726891,0 0.316040826,0.404016539 0.715175624,0.914353219 Z M7.82051847,31.5338515 C8.17812031,31.0556456 7.98306476,30.451596 7.39789811,30.1495712 C6.84524072,29.8727151 6,29.9985588 6,30.3760898 C6,30.4767647 6.06501852,30.5774396 6.26007407,30.6277771 C6.55265739,30.7536208 6.58516665,30.8794644 6.35760184,31.1563205 C6.13003703,31.4331766 6.13003703,31.6848639 6.42262036,31.861045 C6.87774998,32.1379011 7.49542589,31.9868887 7.82051847,31.5338515 Z" id="Shape"></path>
                            <path d="M16.3686606,20.0366361 C15.7824965,20.1415487 15.220756,20.531224 15.0497915,20.9208993 C14.9520975,21.1606994 15.0009445,21.5953372 15.171909,21.7302248 C15.4405675,21.94005 15.6848025,22 16.3686606,22 C17.7119531,22 18.8598576,21.6402998 18.9819752,21.2056619 C19.1040927,20.8459617 18.5911991,20.3513739 17.8829176,20.1265612 C17.5165651,20.0066611 16.7594366,19.9616986 16.3686606,20.0366361 Z M18.8951196,20.7214648 C19.0894908,20.5125633 19.0166016,20.2862534 18.6521555,20.1295774 C17.9961526,19.8336337 17,20.077352 17,20.5299718 C17,20.7562817 17.5102245,21 17.9961526,21 C18.3120058,21 18.7493411,20.8607324 18.8951196,20.7214648 Z" id="Shape"></path>
                        </g>
                    </g>
                </g>
            </g>
        </g>
    </g>
</svg>