<?xml version="1.0" encoding="UTF-8"?>
<svg width="48px" height="42px" viewBox="0 0 48 42" version="1.1" xmlns="http://www.w3.org/2000/svg" xmlns:xlink="http://www.w3.org/1999/xlink">
    <title>ico-matic</title>
    <g id="Homepage" stroke="none" stroke-width="1" fill="none" fill-rule="evenodd">
        <g transform="translate(-1000.000000, -894.000000)" fill="#8247E5" fill-rule="nonzero" id="how-it-works">
            <g transform="translate(202.000000, 780.000000)">
                <g id="UI/elements/illustrations/funnel" transform="translate(534.000000, 0.000000)">
                    <g id="Group-18" transform="translate(32.000000, 114.000000)">
                        <g id="ico-matic" transform="translate(232.000000, 0.000000)">
                            <path d="M36.3446475,12.8367953 C35.4673629,12.3382789 34.3394256,12.3382789 33.3368146,12.8367953 L26.3185379,16.9495549 L21.5561358,19.5667656 L14.6631854,23.6795252 C13.7859008,24.1780415 12.6579634,24.1780415 11.6553525,23.6795252 L6.26631854,20.4391691 C5.38903394,19.9406528 4.76240209,18.9436202 4.76240209,17.8219585 L4.76240209,11.5905045 C4.76240209,10.5934718 5.26370757,9.59643917 6.26631854,8.97329377 L11.6553525,5.85756677 C12.5326371,5.35905045 13.6605744,5.35905045 14.6631854,5.85756677 L20.0522193,9.09792285 C20.9295039,9.59643917 21.5561358,10.5934718 21.5561358,11.7151335 L21.5561358,15.8278932 L26.3185379,13.0860534 L26.3185379,8.84866469 C26.3185379,7.85163205 25.8172324,6.85459941 24.8146214,6.23145401 L14.7885117,0.37388724 C13.9112272,-0.12462908 12.7832898,-0.12462908 11.7806789,0.37388724 L1.50391645,6.35608309 C0.501305483,6.85459941 0,7.85163205 0,8.84866469 L0,20.5637982 C0,21.5608309 0.501305483,22.5578635 1.50391645,23.1810089 L11.6553525,29.0385757 C12.5326371,29.537092 13.6605744,29.537092 14.6631854,29.0385757 L21.5561358,25.0504451 L26.3185379,22.3086053 L33.2114883,18.3204748 C34.0887728,17.8219585 35.2167102,17.8219585 36.2193211,18.3204748 L41.6083551,21.4362018 C42.4856397,21.9347181 43.1122715,22.9317507 43.1122715,24.0534125 L43.1122715,30.2848665 C43.1122715,31.2818991 42.6109661,32.2789318 41.6083551,32.9020772 L36.3446475,36.0178042 C35.4673629,36.5163205 34.3394256,36.5163205 33.3368146,36.0178042 L27.9477807,32.9020772 C27.0704961,32.4035608 26.4438642,31.4065282 26.4438642,30.2848665 L26.4438642,26.2967359 L21.6814621,29.0385757 L21.6814621,33.1513353 C21.6814621,34.148368 22.1827676,35.1454006 23.1853786,35.768546 L33.3368146,41.6261128 C34.2140992,42.1246291 35.3420366,42.1246291 36.3446475,41.6261128 L46.4960836,35.768546 C47.3733681,35.2700297 48,34.272997 48,33.1513353 L48,21.3115727 C48,20.3145401 47.4986945,19.3175074 46.4960836,18.694362 L36.3446475,12.8367953 Z" id="Path"></path>
                        </g>
                    </g>
                </g>
            </g>
        </g>
    </g>
</svg>