<?xml version="1.0" encoding="UTF-8"?>
<svg width="46px" height="42px" viewBox="0 0 46 42" version="1.1" xmlns="http://www.w3.org/2000/svg" xmlns:xlink="http://www.w3.org/1999/xlink">
    <title>ico-ada</title>
    <g id="Homepage" stroke="none" stroke-width="1" fill="none" fill-rule="evenodd">
        <g transform="translate(-915.000000, -894.000000)" fill="#0033AD" fill-rule="nonzero" id="how-it-works">
            <g transform="translate(202.000000, 780.000000)">
                <g id="UI/elements/illustrations/funnel" transform="translate(534.000000, 0.000000)">
                    <g id="Group-18" transform="translate(32.000000, 114.000000)">
                        <g id="ico-ada" transform="translate(147.000000, 0.000000)">
                            <path d="M13.0049972,19.8396452 C12.9100281,21.4911088 14.1802398,22.9049517 15.830328,23 C15.8896837,23 15.9490394,23 16.0083951,23 C17.6703544,23 19.011793,21.6574433 18.9999218,19.9940986 C18.9999218,18.330754 17.6584832,16.9881972 15.9965239,17.0000783 C14.4057914,17.0000783 13.0880951,18.2475867 13.0049972,19.8396452 Z" id="Path"></path>
                            <path d="M1.05454065,20.0021963 C0.503283772,19.9654673 0.0255278126,20.393972 0.00102750699,20.9449065 C-0.0234727986,21.4958411 0.393032397,21.9733177 0.944289273,21.9978037 C1.49554615,22.0345327 1.96105196,21.606028 1.99780241,21.0550935 C2.03455287,20.5041589 1.60579752,20.0389253 1.05454065,20.0021963 C1.05454065,20.0021963 1.05454065,20.0021963 1.05454065,20.0021963 Z" id="Path"></path>
                            <path d="M12.4533744,3.88969989 C12.9435089,3.64525299 13.1395627,3.03413573 12.8944954,2.54524192 C12.6494282,2.0563481 12.0367601,1.86079058 11.5466256,2.10523749 C11.0564911,2.34968439 10.8604373,2.94857931 11.1055046,3.43747312 C11.3505718,3.93858927 11.9509866,4.14636914 12.4533744,3.88969989 C12.441121,3.88969989 12.4533744,3.88969989 12.4533744,3.88969989 Z" id="Path"></path>
                            <path d="M15.8982169,9.78848505 C16.8838709,9.29565806 17.281312,8.08743705 16.7884851,7.10178306 C16.2956581,6.11612908 15.087437,5.71868795 14.1017831,6.21151495 C13.1161291,6.70434194 12.718688,7.91256295 13.2115149,8.89821694 C13.7043419,9.88387092 14.912563,10.281312 15.8982169,9.78848505 Z" id="Path"></path>
                            <path d="M5.45413857,10.838174 C5.91559818,11.1368337 6.53087767,11.0115894 6.83851741,10.5491485 C7.13654341,10.0867077 7.01156476,9.47011986 6.55010515,9.16182596 C6.08864554,8.86316625 5.47336606,8.98841065 5.16572632,9.45085149 C5.16572632,9.45085149 5.16572632,9.45085149 5.16572632,9.45085149 C4.85808657,9.91329234 4.99267896,10.5395143 5.45413857,10.838174 Z" id="Path"></path>
                            <path d="M7.11092422,20.003364 C6.00168198,19.9399787 5.06674924,20.7798335 5.00336397,21.8890758 C4.9399787,22.998318 5.77983354,23.9332508 6.88907578,23.996636 C7.99831802,24.0600213 8.93325076,23.2201665 8.99663603,22.1109242 C8.99663603,22.1109242 8.99663603,22.1109242 8.99663603,22.1109242 C9.0600213,21.0175283 8.22016646,20.0667492 7.11092422,20.003364 Z" id="Path"></path>
                            <path d="M5.54884487,29.1072888 C5.05929356,29.356864 4.85771361,29.9520048 5.10728878,30.4511551 C5.35686396,30.9407064 5.95200477,31.1422864 6.45115513,30.8927112 C6.94070644,30.643136 7.14228639,30.0479952 6.89271122,29.5488449 C6.89271122,29.5488449 6.89271122,29.5488449 6.89271122,29.5488449 C6.64313604,29.0592936 6.03839618,28.8577136 5.54884487,29.1072888 C5.54884487,29.1072888 5.54884487,29.1072888 5.54884487,29.1072888 Z" id="Path"></path>
                            <path d="M11.9081855,16.6714198 C12.8382497,17.2779834 14.0783353,17.0218788 14.6714198,16.0918145 C15.2779834,15.1617503 15.0218788,13.9216647 14.0918145,13.3285802 C13.1617503,12.7220166 11.9216647,12.9781212 11.3285802,13.9081855 C10.7220166,14.8247705 10.9781212,16.0648562 11.9081855,16.6714198 C11.9081855,16.6714198 11.9081855,16.6714198 11.9081855,16.6714198 Z" id="Path"></path>
                            <path d="M29.9063604,9.67312182 C30.8236431,10.2757629 32.0730454,10.0220193 32.6740237,9.10219874 C33.275002,8.18237821 33.0219585,6.92951921 32.1046758,6.32687818 C31.1873932,5.72423714 29.9379909,5.97798074 29.3370126,6.89780126 C29.3370126,6.89780126 29.3370126,6.89780126 29.3370126,6.89780126 C28.720219,7.83348077 28.9732625,9.07048079 29.9063604,9.67312182 C29.9063604,9.67312182 29.9063604,9.67312182 29.9063604,9.67312182 Z" id="Path"></path>
                            <path d="M33.4502664,3.8361843 C33.9160771,4.14125296 34.5289858,4.00702275 34.8354402,3.54331838 C35.1418946,3.07961401 35.0070546,2.46947669 34.541244,2.16440803 C34.0754334,1.85933936 33.4625246,1.99356957 33.1560702,2.4450712 C32.861874,2.90877556 32.996714,3.53111563 33.4502664,3.8361843 C33.4502664,3.8361843 33.4502664,3.8361843 33.4502664,3.8361843 Z" id="Path"></path>
                            <path d="M30.1689866,17.0050071 C28.5156289,16.9098485 27.0882697,18.182595 27.0050071,19.835976 C26.9098498,21.489357 28.1825784,22.9167362 29.8359362,23 C29.8954095,23 29.9548828,23 30.0024614,23 C31.6558192,23 32.9999157,21.6558845 32.9999157,19.9906087 C33.0118104,18.4085967 31.7628711,17.0882709 30.1689866,17.0050071 L30.1689866,17.0050071 Z" id="Path"></path>
                            <path d="M17.323378,16.3525277 C17.8340365,17.3599748 18.8672292,18 20.0073039,18 C21.6580371,18 23,16.660688 23,15.0013633 C23,14.5391228 22.893118,14.0768824 22.679354,13.6501989 C21.93118,12.168659 20.1260617,11.5760431 18.6534652,12.3227392 C17.1689929,13.0812876 16.575204,14.8828401 17.323378,16.3525277 L17.323378,16.3525277 Z" id="Path"></path>
                            <path d="M40.4581492,10.8923024 C40.9482412,10.6417762 41.1404341,10.0347321 40.8905833,9.5433154 C40.6407325,9.0518987 40.0353247,8.85918627 39.5452327,9.10971243 C39.0551407,9.36023859 38.8629477,9.95764712 39.1031889,10.4490638 C39.3626494,10.9404805 39.9584475,11.1428286 40.4581492,10.8923024 C40.4581492,10.8923024 40.4581492,10.8923024 40.4581492,10.8923024 Z" id="Path"></path>
                            <path d="M33.1036017,13.2083362 C32.1195856,13.7078227 31.7151954,14.9092904 32.2139433,15.8947638 C32.7126912,16.8802373 33.9123821,17.2852264 34.8963983,16.7857399 C35.8804144,16.2862533 36.2848046,15.0847856 35.7860567,14.0993122 C35.2873088,13.1138387 34.0876179,12.7223493 33.1036017,13.2083362 Z" id="Path"></path>
                            <path d="M21.9419233,1.99861021 C22.4889687,2.02741584 22.9592358,1.60493325 22.9976249,1.05762627 C23.0360141,0.510319286 22.6041361,0.039827318 22.0570908,0.00141981039 C21.5100454,-0.0273858203 21.0397783,0.385494887 21.0013891,0.93280187 C20.9725973,1.48971073 21.3948779,1.9602027 21.9419233,1.99861021 C21.9419233,1.99861021 21.9419233,1.99861021 21.9419233,1.99861021 Z" id="Path"></path>
                            <path d="M22.8914185,10.9962473 C23.9978023,11.0636881 24.9422762,10.2139342 24.9962461,9.10790526 C25.0637085,8.00187634 24.213682,7.0577053 23.1072983,7.00375267 C22.0009146,6.93631189 21.0564407,7.78606582 21.0024707,8.89209474 C20.9485008,9.99812366 21.7850348,10.9422947 22.8914185,10.9962473 C22.8914185,10.9962473 22.8914185,10.9962473 22.8914185,10.9962473 Z" id="Path"></path>
                            <path d="M13.8963983,29.7860567 C14.8804144,29.2873088 15.2848046,28.0876179 14.7860567,27.1036017 C14.2873088,26.1195856 13.0876179,25.7151954 12.1036017,26.2139433 C11.1195856,26.7126912 10.7151954,27.9123821 11.2139433,28.8963983 C11.7126912,29.8804144 12.9123821,30.2848046 13.8963983,29.7860567 Z" id="Path"></path>
                            <path d="M23.4898275,13.3566747 C22.5856895,14.7490515 22.9663792,16.6055537 24.3582758,17.5100036 C25.7501724,18.4144534 27.6060346,18.0336324 28.5101725,16.6412557 C29.4143105,15.248879 29.0336208,13.3923767 27.6417242,12.4879269 C27.1539656,12.1666092 26.5829311,12 26,12 C24.9887931,12 24.0489654,12.5117282 23.4898275,13.3566747 Z" id="Path"></path>
                            <path d="M28.674795,26.6527126 C27.9272216,25.168916 26.1235523,24.5753973 24.6521379,25.3232308 C23.1688572,26.0710643 22.575545,27.8753611 23.3231184,29.3472874 C24.0706919,30.831084 25.8743611,31.4246027 27.3457755,30.6767692 C27.3457755,30.6767692 27.3457755,30.6767692 27.3457755,30.6767692 C28.8171899,29.940806 29.4223684,28.16025 28.6866612,26.6764534 C28.6866612,26.664583 28.6866612,26.664583 28.674795,26.6527126 Z" id="Path"></path>
                            <path d="M35.0918145,26.3285802 C34.1617503,25.7220166 32.9216647,25.9781212 32.3285802,26.9081855 C31.7220166,27.8382497 31.9781212,29.0783353 32.9081855,29.6714198 C33.8382497,30.2779834 35.0783353,30.0218788 35.6714198,29.0918145 C36.2779834,28.1752295 36.0218788,26.9351438 35.0918145,26.3285802 C35.0918145,26.3285802 35.0918145,26.3285802 35.0918145,26.3285802 Z" id="Path"></path>
                            <path d="M41.996636,22.1109543 C42.0600213,21.0016962 41.2201665,20.0667502 40.1109242,20.003364 C39.001682,19.9399778 38.0667492,20.7798446 38.003364,21.8891027 C37.9399787,22.9983607 38.7798335,23.9333067 39.8890758,23.9966929 C39.8890758,23.9966929 39.8890758,23.9966929 39.8890758,23.9966929 C40.9824717,24.0600791 41.9332508,23.2043658 41.996636,22.1109543 Z" id="Path"></path>
                            <path d="M45.055158,20.0021963 C44.5035784,19.9654673 44.0255428,20.393972 44.0010281,20.9449065 C43.9765135,21.4958411 44.3932625,21.9733177 44.944842,21.9978037 C45.4964216,22.0345327 45.9621999,21.606028 45.9989719,21.0550935 C46.0234865,20.5041589 45.6067375,20.0389253 45.055158,20.0021963 Z" id="Path"></path>
                            <path d="M40.5458614,29.161826 C40.0844018,28.8631663 39.4691223,28.9884106 39.1614826,29.4508515 C38.8634566,29.9132923 38.9884352,30.5298801 39.4498948,30.838174 C39.9113545,31.1368337 40.5266339,31.0115894 40.8342737,30.5491485 C41.1419134,30.0867077 41.007321,29.4604857 40.5458614,29.161826 C40.5458614,29.161826 40.5458614,29.161826 40.5458614,29.161826 Z" id="Path"></path>
                            <path d="M12.5457125,38.165368 C12.0812888,37.858518 11.470205,37.993532 11.1646631,38.44767 C10.8591212,38.914082 10.9935596,39.527782 11.4457616,39.834632 C11.9101854,40.141482 12.5212692,40.006468 12.8268111,39.55233 C12.8268111,39.55233 12.8268111,39.55233 12.8268111,39.55233 C13.1445747,39.098192 13.0101363,38.472218 12.5457125,38.165368 Z" id="Path"></path>
                            <path d="M33.5466256,38.1103001 C33.0564911,38.354747 32.8604373,38.9658643 33.1055046,39.4547581 C33.3505718,39.9436519 33.9632399,40.1392094 34.4533744,39.8947625 C34.9435089,39.6503156 35.1395627,39.0514207 34.8944954,38.5625269 C34.6494282,38.0614107 34.0490134,37.8536309 33.5466256,38.1103001 C33.558879,38.1103001 33.5466256,38.1103001 33.5466256,38.1103001 Z" id="Path"></path>
                            <path d="M22.5115684,29.6458539 C23.4131298,28.2562803 23.033525,26.4035156 21.6455949,25.48901 C20.2576648,24.586381 18.4070913,24.9664353 17.4936672,26.3560088 C16.5802431,27.7455824 16.9717106,29.5983471 18.3596407,30.5128527 C18.8460094,30.8335235 19.4154166,30.9997973 19.9966865,30.9997973 C21.0168744,31.011674 21.9540238,30.500976 22.5115684,29.6458539 Z" id="Path"></path>
                            <path d="M16.0936396,34.3268782 C15.1763569,33.7242371 13.9269546,33.9779807 13.3259763,34.8978013 C12.724998,35.8176218 12.9780415,37.0704808 13.8953242,37.6731218 C14.8126068,38.2757629 16.0620091,38.0220193 16.6629874,37.1021987 C16.6629874,37.1021987 16.6629874,37.1021987 16.6629874,37.1021987 C17.279781,36.1823782 17.0267375,34.9295192 16.0936396,34.3268782 Z" id="Path"></path>
                            <path d="M22.0580767,40.0013898 C21.5110313,39.9725842 21.0407642,40.3950667 21.0023751,40.9423737 C20.9639859,41.4896807 21.3958639,41.9601727 21.9429092,41.9985802 C22.4899546,42.0273858 22.9602217,41.6145051 22.9986109,41.0671981 C23.0274027,40.5102893 22.6051221,40.0397973 22.0580767,40.0013898 C22.0580767,40.0013898 22.0580767,40.0013898 22.0580767,40.0013898 Z" id="Path"></path>
                            <path d="M23.1079053,32.0037539 C22.0018763,31.9362915 21.0577053,32.786318 21.0037527,33.8927017 C20.9363119,34.9990854 21.7860658,35.9435593 22.8920947,35.9975293 C23.9981237,36.0514992 24.9422947,35.2149652 24.9962473,34.1085815 C25.0636881,33.0156902 24.2139342,32.0577238 23.1079053,32.0037539 C23.1079053,32.0037539 23.1079053,32.0037539 23.1079053,32.0037539 Z" id="Path"></path>
                            <path d="M30.0890488,34.2175546 C29.109807,34.7240918 28.7149514,35.9271176 29.2203666,36.9085334 C29.7257817,37.8899492 30.9261427,38.2856814 31.9053845,37.7791442 C32.8846264,37.2884363 33.279482,36.0854105 32.7898611,35.1039947 C32.2844459,34.1225788 31.0840849,33.7110174 30.0890488,34.2175546 C30.0890488,34.2175546 30.0890488,34.2175546 30.0890488,34.2175546 Z" id="Path"></path>
                        </g>
                    </g>
                </g>
            </g>
        </g>
    </g>
</svg>