<?xml version="1.0" encoding="UTF-8"?>
<svg width="42px" height="42px" viewBox="0 0 42 42" version="1.1" xmlns="http://www.w3.org/2000/svg" xmlns:xlink="http://www.w3.org/1999/xlink">
    <title>ico-ave</title>
    <defs>
        <linearGradient x1="87.2792784%" y1="18.632268%" x2="12.8792784%" y2="81.232268%" id="linearGradient-1">
            <stop stop-color="#B6509E" offset="0%"></stop>
            <stop stop-color="#2EBAC6" offset="100%"></stop>
        </linearGradient>
    </defs>
    <g id="Homepage" stroke="none" stroke-width="1" fill="none" fill-rule="evenodd">
        <g transform="translate(-1163.000000, -894.000000)" fill-rule="nonzero" id="how-it-works">
            <g transform="translate(202.000000, 780.000000)">
                <g id="UI/elements/illustrations/funnel" transform="translate(534.000000, 0.000000)">
                    <g id="Group-18" transform="translate(32.000000, 114.000000)">
                        <g id="ico-ave" transform="translate(395.000000, 0.000000)">
                            <circle id="Oval" fill="url(#linearGradient-1)" cx="21" cy="21" r="21"></circle>
                            <path d="M30.9107883,29.2186667 L23.6518783,12.3013333 C23.2424581,11.4266667 22.6338605,11 21.8316181,11 L21.1898243,11 C20.3875819,11 19.7789843,11.4266667 19.3695641,12.3013333 L16.2103891,19.672 L13.8202602,19.672 C13.1065412,19.6773333 12.525607,20.232 12.5200743,20.9253333 L12.5200743,20.9413333 C12.525607,21.6293333 13.1065412,22.1893333 13.8202602,22.1946667 L15.1038479,22.1946667 L12.0885233,29.2186667 C12.0331962,29.3733333 12,29.5333333 12,29.6986667 C12,30.0933333 12.1272522,30.4026667 12.3540932,30.6426667 C12.5809341,30.8826667 12.9073637,31 13.316784,31 C13.5878866,30.9946667 13.8479237,30.9146667 14.0636992,30.76 C14.2960729,30.6053333 14.4565214,30.3813333 14.5837736,30.1253333 L17.903397,22.1893333 L20.2050026,22.1893333 C20.9187217,22.184 21.4996558,21.6293333 21.5051885,20.936 L21.5051885,20.904 C21.4996558,20.216 20.9187217,19.656 20.2050026,19.6506667 L18.976742,19.6506667 L21.5107212,13.5653333 L28.415538,30.12 C28.5427902,30.376 28.7032387,30.6 28.9356123,30.7546667 C29.1513879,30.9093333 29.4169577,30.9893333 29.6825276,30.9946667 C30.0919478,30.9946667 30.4128448,30.8773333 30.6452184,30.6373333 C30.8775921,30.3973333 30.9993116,30.088 30.9993116,29.6933333 C31.0048443,29.5333333 30.9771808,29.368 30.9107883,29.2186667 Z" id="Path" fill="#FFFFFF"></path>
                        </g>
                    </g>
                </g>
            </g>
        </g>
    </g>
</svg>