<?xml version="1.0" encoding="UTF-8"?>
<svg width="42px" height="42px" viewBox="0 0 42 42" version="1.1" xmlns="http://www.w3.org/2000/svg" xmlns:xlink="http://www.w3.org/1999/xlink">
    <title>ico-btc</title>
    <g id="Homepage" stroke="none" stroke-width="1" fill="none" fill-rule="evenodd">
        <g transform="translate(-833.000000, -894.000000)" fill-rule="nonzero" id="how-it-works">
            <g transform="translate(202.000000, 780.000000)">
                <g id="UI/elements/illustrations/funnel" transform="translate(534.000000, 0.000000)">
                    <g id="Group-18" transform="translate(32.000000, 114.000000)">
                        <g id="ico-btc" transform="translate(65.000000, 0.000000)">
                            <path d="M41.3716656,26.0800023 C38.5666473,37.330116 27.1708241,44.1767127 15.9181057,41.3712925 C4.67010954,38.5665908 -2.17726006,27.1713354 0.628990155,15.9221455 C3.43277658,4.67079998 14.8285998,-2.17630989 26.0778278,0.628391789 C37.329725,3.43309347 44.176684,14.8295805 41.3713577,26.0802075 L41.371563,26.0800023 L41.3716656,26.0800023 Z" id="Path" fill="#F7931A"></path>
                            <path d="M30.9477488,17.8542488 C31.363808,15.0171783 29.2459115,13.4921461 26.3498453,12.474798 L27.2893503,8.63173759 L24.9955073,8.04881786 L24.0809332,11.7906957 C23.4778927,11.6373067 22.8586061,11.4927752 22.2431001,11.349494 L23.1643156,7.58291973 L20.8719031,7 L19.9318873,10.8418099 C19.4328615,10.7259346 18.942725,10.6114139 18.4671996,10.4907451 L18.4698562,10.4786574 L15.3066008,9.67305273 L14.6964079,12.1716672 C14.6964079,12.1716672 16.3982452,12.5695198 16.3623816,12.5940079 C17.2912603,12.8304478 17.459237,13.4575502 17.431343,13.9546055 L16.3611555,18.3327557 C16.4251174,18.3493242 16.508084,18.3732912 16.5996334,18.4108048 C16.5231038,18.3914228 16.4416699,18.3702693 16.3571706,18.3496368 L14.8571301,24.4827985 C14.743613,24.7706113 14.4554777,25.2025387 13.8060494,25.0385209 C13.8290389,25.0724916 12.1388496,24.6142004 12.1388496,24.6142004 L11,27.2920465 L13.9850611,28.0509676 C14.5403857,28.1929982 15.0845731,28.3415938 15.6204843,28.481332 L14.6712727,32.3684708 L16.9624591,32.9513906 L17.9024749,29.1055167 C18.5284028,29.2788087 19.135837,29.4386583 19.7304991,29.589338 L18.7936508,33.4170803 L21.0875959,34 L22.0367054,30.1201555 C25.9481929,30.8751167 28.8893185,30.5707355 30.1272785,26.962552 C31.1248192,24.0575402 30.0776211,22.3819325 28.0198039,21.2892446 C29.5186183,20.9367209 30.6475568,19.9313563 30.9485662,17.8545615 L30.947851,17.8540404 L30.9477488,17.8542488 Z M25.9267481,25.2606778 C25.2312061,28.2014116 20.5256209,26.6117402 19,26.2131093 L20.2358953,21 C21.761416,21.4007406 26.6536687,22.193783 25.9268484,25.2606778 L25.9267481,25.2606778 Z M25.9268113,18.1854838 C25.2808421,21.1747951 21.2934695,19.6560911 20,19.2836944 L21.1407803,14 C22.4342498,14.3723967 26.5997257,15.0674428 25.9270155,18.1854838 L25.9268113,18.1854838 Z" id="Shape" fill="#FFFFFF"></path>
                        </g>
                    </g>
                </g>
            </g>
        </g>
    </g>
</svg>