<?xml version="1.0" encoding="UTF-8"?>
<svg width="16px" height="12px" viewBox="0 0 16 12" version="1.1" xmlns="http://www.w3.org/2000/svg" xmlns:xlink="http://www.w3.org/1999/xlink">
    <title>Icon/View</title>
    <defs>
        <path d="M8,2 C12.418278,2 14.6666667,4.66666667 16,8 L15.8508551,8.36089557 C14.5002782,11.5237466 12.2576133,14 8,14 C3.581722,14 1.33333333,11.3333333 0,8 C1.33333333,4.66666667 3.581722,2 8,2 Z M8.00033908,3.33333333 C4.80910292,3.33333333 2.79929413,4.83112324 1.40479454,7.84273844 L1.33333333,8 L1.40479454,8.15726156 C2.76686391,11.0988392 4.71595622,12.5961833 7.77960444,12.6642363 L8.00033908,12.6666667 C11.1915752,12.6666667 13.201384,11.1688768 14.5958836,8.15726156 L14.6666667,8 L14.5958836,7.84273844 C13.2338143,4.90116081 11.2847219,3.40381671 8.22107372,3.3357637 L8.00033908,3.33333333 Z M8,4.66666667 C9.84094917,4.66666667 11.3333333,6.15905083 11.3333333,8 C11.3333333,9.84094917 9.84094917,11.3333333 8,11.3333333 C6.15905083,11.3333333 4.66666667,9.84094917 4.66666667,8 C4.66666667,6.15905083 6.15905083,4.66666667 8,4.66666667 Z M8,6 C6.8954305,6 6,6.8954305 6,8 C6,9.1045695 6.8954305,10 8,10 C9.1045695,10 10,9.1045695 10,8 C10,6.8954305 9.1045695,6 8,6 Z" id="path-1"></path>
    </defs>
    <g id="Symbols" stroke="none" stroke-width="1" fill="none" fill-rule="evenodd">
        <g id="UI/editor/sidebar-right/header-tab--test" transform="translate(-16.000000, -20.000000)">
            <g id="ico-+-label" transform="translate(16.000000, 16.000000)">
                <g id="Icon/View" transform="translate(0.000000, 2.000000)">
                    <mask id="mask-2" fill="white">
                        <use xlink:href="#path-1"></use>
                    </mask>
                    <use id="Icon" fill="#FFFFFF" fill-rule="nonzero" xlink:href="#path-1"></use>
                    <g id="Color" mask="url(#mask-2)" fill="#FFFFFF">
                        <rect x="0" y="0" width="16" height="16"></rect>
                    </g>
                </g>
            </g>
        </g>
    </g>
</svg>